<?xml version="1.0" encoding="iso-8859-1"?>
<!-- Uploaded to: SVG Repo, www.svgrepo.com, Generator: SVG Repo Mixer Tools -->
<svg fill="#000000" height="800px" width="800px" version="1.1" id="Layer_1" xmlns="http://www.w3.org/2000/svg" xmlns:xlink="http://www.w3.org/1999/xlink" 
	 viewBox="0 0 512 512" xml:space="preserve">
<g>
	<g>
		<path d="M501.333,128h-42.667V74.667c0-17.707-14.293-32-32-32H309.333c-19.413,0.107-36.267,13.227-41.173,32h-50.453
			L188.8,45.76c-2.027-2.027-4.693-3.093-7.573-3.093H10.667C4.8,42.667,0,47.467,0,53.333V408c0,34.347,28.16,61.333,64,61.333
			h373.333c41.173,0,74.667-33.493,74.667-74.667v-256C512,132.8,507.2,128,501.333,128z M426.667,64
			c5.867,0,10.667,4.8,10.667,10.667v240.96l-35.093-35.093c-4.16-4.16-10.88-4.16-15.04,0L352,315.627V85.333
			c0-7.467-1.92-14.827-5.76-21.333H426.667z M309.333,64c7.573,0,14.613,4.053,18.347,10.667h-36.693
			C294.72,68.053,301.76,64,309.333,64z M106.667,138.667V408c0,23.573-17.493,40-42.667,40c-24.32,0-42.667-17.173-42.667-40V64
			h155.52l29.013,28.907C207.893,94.933,210.56,96,213.44,96h117.333v32h-213.44C111.467,128,106.667,132.8,106.667,138.667z
			 M437.333,448H113.707C122.773,437.44,128,423.68,128,408V149.333h202.667v192c0,5.867,4.8,10.667,10.667,10.667
			c2.88,0,5.547-1.173,7.573-3.093l45.76-45.76l45.76,45.76c4.16,4.16,10.88,4.16,15.04,0c2.027-2.027,3.093-4.693,3.093-7.573v-192
			h32v245.333h0.107C490.667,424.107,466.773,448,437.333,448z"/>
	</g>
</g>
</svg>